<svg xmlns="http://www.w3.org/2000/svg" xmlns:xlink="http://www.w3.org/1999/xlink" width="500" zoomAndPan="magnify" viewBox="0 0 375 374.999991" height="500" preserveAspectRatio="xMidYMid meet" version="1.0"><defs><g/><clipPath id="10328473ca"><path d="M 101.339844 65.933594 L 273.839844 65.933594 L 273.839844 222.683594 L 101.339844 222.683594 Z M 101.339844 65.933594 " clip-rule="nonzero"/></clipPath></defs><rect x="-37.5" width="450" fill="#ffffff" y="-37.499999" height="449.999989" fill-opacity="1"/><rect x="-37.5" width="450" fill="#ffffff" y="-37.499999" height="449.999989" fill-opacity="1"/><g fill="#000000" fill-opacity="1"><g transform="translate(53.884436, 249.887196)"><g><path d="M 32.578125 -19.984375 L 26.03125 0 L 21.0625 0 L 16.671875 -13.53125 L 12.125 0 L 7.1875 0 L 0.625 -19.984375 L 5.421875 -19.984375 L 9.9375 -5.9375 L 14.640625 -19.984375 L 18.921875 -19.984375 L 23.5 -5.828125 L 28.140625 -19.984375 Z M 32.578125 -19.984375 "/></g></g></g><g fill="#000000" fill-opacity="1"><g transform="translate(91.267841, 249.887196)"><g><path d="M 17.84375 -3.71875 L 17.84375 0 L 2.375 0 L 2.375 -19.984375 L 17.46875 -19.984375 L 17.46875 -16.265625 L 6.96875 -16.265625 L 6.96875 -11.9375 L 16.25 -11.9375 L 16.25 -8.328125 L 6.96875 -8.328125 L 6.96875 -3.71875 Z M 17.84375 -3.71875 "/></g></g></g><g fill="#000000" fill-opacity="1"><g transform="translate(114.611967, 249.887196)"><g><path d="M 8.9375 0.34375 C 7.351562 0.34375 5.820312 0.128906 4.34375 -0.296875 C 2.875 -0.722656 1.691406 -1.28125 0.796875 -1.96875 L 2.375 -5.453125 C 3.226562 -4.828125 4.242188 -4.320312 5.421875 -3.9375 C 6.597656 -3.5625 7.78125 -3.375 8.96875 -3.375 C 10.28125 -3.375 11.25 -3.566406 11.875 -3.953125 C 12.5 -4.335938 12.8125 -4.859375 12.8125 -5.515625 C 12.8125 -5.984375 12.625 -6.375 12.25 -6.6875 C 11.882812 -7.007812 11.410156 -7.265625 10.828125 -7.453125 C 10.253906 -7.640625 9.472656 -7.847656 8.484375 -8.078125 C 6.953125 -8.441406 5.703125 -8.800781 4.734375 -9.15625 C 3.765625 -9.519531 2.929688 -10.101562 2.234375 -10.90625 C 1.546875 -11.707031 1.203125 -12.773438 1.203125 -14.109375 C 1.203125 -15.265625 1.515625 -16.3125 2.140625 -17.25 C 2.765625 -18.195312 3.707031 -18.945312 4.96875 -19.5 C 6.238281 -20.050781 7.789062 -20.328125 9.625 -20.328125 C 10.894531 -20.328125 12.140625 -20.171875 13.359375 -19.859375 C 14.578125 -19.554688 15.644531 -19.125 16.5625 -18.5625 L 15.125 -15.046875 C 13.28125 -16.085938 11.4375 -16.609375 9.59375 -16.609375 C 8.300781 -16.609375 7.34375 -16.398438 6.71875 -15.984375 C 6.101562 -15.566406 5.796875 -15.015625 5.796875 -14.328125 C 5.796875 -13.640625 6.148438 -13.128906 6.859375 -12.796875 C 7.578125 -12.460938 8.671875 -12.132812 10.140625 -11.8125 C 11.660156 -11.457031 12.90625 -11.097656 13.875 -10.734375 C 14.84375 -10.367188 15.671875 -9.796875 16.359375 -9.015625 C 17.054688 -8.234375 17.40625 -7.179688 17.40625 -5.859375 C 17.40625 -4.710938 17.085938 -3.664062 16.453125 -2.71875 C 15.816406 -1.78125 14.859375 -1.035156 13.578125 -0.484375 C 12.304688 0.0664062 10.757812 0.34375 8.9375 0.34375 Z M 8.9375 0.34375 "/></g></g></g><g fill="#000000" fill-opacity="1"><g transform="translate(137.014427, 249.887196)"><g><path d="M 6.515625 -16.21875 L 0.109375 -16.21875 L 0.109375 -19.984375 L 17.53125 -19.984375 L 17.53125 -16.21875 L 11.140625 -16.21875 L 11.140625 0 L 6.515625 0 Z M 6.515625 -16.21875 "/></g></g></g><g fill="#000000" fill-opacity="1"><g transform="translate(158.846183, 249.887196)"><g/></g></g><g fill="#000000" fill-opacity="1"><g transform="translate(171.118677, 249.887196)"><g><path d="M 8.9375 0.34375 C 7.351562 0.34375 5.820312 0.128906 4.34375 -0.296875 C 2.875 -0.722656 1.691406 -1.28125 0.796875 -1.96875 L 2.375 -5.453125 C 3.226562 -4.828125 4.242188 -4.320312 5.421875 -3.9375 C 6.597656 -3.5625 7.78125 -3.375 8.96875 -3.375 C 10.28125 -3.375 11.25 -3.566406 11.875 -3.953125 C 12.5 -4.335938 12.8125 -4.859375 12.8125 -5.515625 C 12.8125 -5.984375 12.625 -6.375 12.25 -6.6875 C 11.882812 -7.007812 11.410156 -7.265625 10.828125 -7.453125 C 10.253906 -7.640625 9.472656 -7.847656 8.484375 -8.078125 C 6.953125 -8.441406 5.703125 -8.800781 4.734375 -9.15625 C 3.765625 -9.519531 2.929688 -10.101562 2.234375 -10.90625 C 1.546875 -11.707031 1.203125 -12.773438 1.203125 -14.109375 C 1.203125 -15.265625 1.515625 -16.3125 2.140625 -17.25 C 2.765625 -18.195312 3.707031 -18.945312 4.96875 -19.5 C 6.238281 -20.050781 7.789062 -20.328125 9.625 -20.328125 C 10.894531 -20.328125 12.140625 -20.171875 13.359375 -19.859375 C 14.578125 -19.554688 15.644531 -19.125 16.5625 -18.5625 L 15.125 -15.046875 C 13.28125 -16.085938 11.4375 -16.609375 9.59375 -16.609375 C 8.300781 -16.609375 7.34375 -16.398438 6.71875 -15.984375 C 6.101562 -15.566406 5.796875 -15.015625 5.796875 -14.328125 C 5.796875 -13.640625 6.148438 -13.128906 6.859375 -12.796875 C 7.578125 -12.460938 8.671875 -12.132812 10.140625 -11.8125 C 11.660156 -11.457031 12.90625 -11.097656 13.875 -10.734375 C 14.84375 -10.367188 15.671875 -9.796875 16.359375 -9.015625 C 17.054688 -8.234375 17.40625 -7.179688 17.40625 -5.859375 C 17.40625 -4.710938 17.085938 -3.664062 16.453125 -2.71875 C 15.816406 -1.78125 14.859375 -1.035156 13.578125 -0.484375 C 12.304688 0.0664062 10.757812 0.34375 8.9375 0.34375 Z M 8.9375 0.34375 "/></g></g></g><g fill="#000000" fill-opacity="1"><g transform="translate(193.521137, 249.887196)"><g><path d="M 17.84375 -3.71875 L 17.84375 0 L 2.375 0 L 2.375 -19.984375 L 17.46875 -19.984375 L 17.46875 -16.265625 L 6.96875 -16.265625 L 6.96875 -11.9375 L 16.25 -11.9375 L 16.25 -8.328125 L 6.96875 -8.328125 L 6.96875 -3.71875 Z M 17.84375 -3.71875 "/></g></g></g><g fill="#000000" fill-opacity="1"><g transform="translate(216.865264, 249.887196)"><g><path d="M 11.9375 0.34375 C 9.894531 0.34375 8.050781 -0.0976562 6.40625 -0.984375 C 4.757812 -1.867188 3.460938 -3.09375 2.515625 -4.65625 C 1.578125 -6.226562 1.109375 -8.003906 1.109375 -9.984375 C 1.109375 -11.960938 1.578125 -13.738281 2.515625 -15.3125 C 3.460938 -16.882812 4.757812 -18.113281 6.40625 -19 C 8.050781 -19.882812 9.90625 -20.328125 11.96875 -20.328125 C 13.695312 -20.328125 15.257812 -20.019531 16.65625 -19.40625 C 18.050781 -18.800781 19.226562 -17.925781 20.1875 -16.78125 L 17.21875 -14.046875 C 15.863281 -15.609375 14.1875 -16.390625 12.1875 -16.390625 C 10.945312 -16.390625 9.84375 -16.117188 8.875 -15.578125 C 7.90625 -15.035156 7.148438 -14.273438 6.609375 -13.296875 C 6.066406 -12.328125 5.796875 -11.222656 5.796875 -9.984375 C 5.796875 -8.753906 6.066406 -7.648438 6.609375 -6.671875 C 7.148438 -5.703125 7.90625 -4.945312 8.875 -4.40625 C 9.84375 -3.863281 10.945312 -3.59375 12.1875 -3.59375 C 14.1875 -3.59375 15.863281 -4.382812 17.21875 -5.96875 L 20.1875 -3.21875 C 19.226562 -2.0625 18.046875 -1.175781 16.640625 -0.5625 C 15.234375 0.0390625 13.664062 0.34375 11.9375 0.34375 Z M 11.9375 0.34375 "/></g></g></g><g fill="#000000" fill-opacity="1"><g transform="translate(241.978567, 249.887196)"><g><path d="M 12.046875 0.34375 C 9.972656 0.34375 8.101562 -0.101562 6.4375 -1 C 4.769531 -1.894531 3.460938 -3.125 2.515625 -4.6875 C 1.578125 -6.257812 1.109375 -8.023438 1.109375 -9.984375 C 1.109375 -11.953125 1.578125 -13.71875 2.515625 -15.28125 C 3.460938 -16.851562 4.769531 -18.085938 6.4375 -18.984375 C 8.101562 -19.878906 9.972656 -20.328125 12.046875 -20.328125 C 14.117188 -20.328125 15.984375 -19.878906 17.640625 -18.984375 C 19.296875 -18.085938 20.597656 -16.851562 21.546875 -15.28125 C 22.503906 -13.71875 22.984375 -11.953125 22.984375 -9.984375 C 22.984375 -8.023438 22.503906 -6.257812 21.546875 -4.6875 C 20.597656 -3.125 19.296875 -1.894531 17.640625 -1 C 15.984375 -0.101562 14.117188 0.34375 12.046875 0.34375 Z M 12.046875 -3.59375 C 13.222656 -3.59375 14.285156 -3.863281 15.234375 -4.40625 C 16.191406 -4.945312 16.941406 -5.703125 17.484375 -6.671875 C 18.023438 -7.648438 18.296875 -8.753906 18.296875 -9.984375 C 18.296875 -11.222656 18.023438 -12.328125 17.484375 -13.296875 C 16.941406 -14.273438 16.191406 -15.035156 15.234375 -15.578125 C 14.285156 -16.117188 13.222656 -16.390625 12.046875 -16.390625 C 10.867188 -16.390625 9.800781 -16.117188 8.84375 -15.578125 C 7.894531 -15.035156 7.148438 -14.273438 6.609375 -13.296875 C 6.066406 -12.328125 5.796875 -11.222656 5.796875 -9.984375 C 5.796875 -8.753906 6.066406 -7.648438 6.609375 -6.671875 C 7.148438 -5.703125 7.894531 -4.945312 8.84375 -4.40625 C 9.800781 -3.863281 10.867188 -3.59375 12.046875 -3.59375 Z M 12.046875 -3.59375 "/></g></g></g><g fill="#000000" fill-opacity="1"><g transform="translate(270.259262, 249.887196)"><g><path d="M 20.703125 -19.984375 L 20.703125 0 L 16.90625 0 L 6.9375 -12.125 L 6.9375 0 L 2.375 0 L 2.375 -19.984375 L 6.1875 -19.984375 L 16.125 -7.84375 L 16.125 -19.984375 Z M 20.703125 -19.984375 "/></g></g></g><g fill="#000000" fill-opacity="1"><g transform="translate(297.512701, 249.887196)"><g><path d="M 2.375 -19.984375 L 11.453125 -19.984375 C 13.617188 -19.984375 15.535156 -19.566406 17.203125 -18.734375 C 18.867188 -17.910156 20.160156 -16.742188 21.078125 -15.234375 C 22.003906 -13.734375 22.46875 -11.984375 22.46875 -9.984375 C 22.46875 -7.992188 22.003906 -6.242188 21.078125 -4.734375 C 20.160156 -3.234375 18.867188 -2.066406 17.203125 -1.234375 C 15.535156 -0.410156 13.617188 0 11.453125 0 L 2.375 0 Z M 11.21875 -3.796875 C 13.21875 -3.796875 14.8125 -4.351562 16 -5.46875 C 17.1875 -6.582031 17.78125 -8.085938 17.78125 -9.984375 C 17.78125 -11.890625 17.1875 -13.398438 16 -14.515625 C 14.8125 -15.628906 13.21875 -16.1875 11.21875 -16.1875 L 7 -16.1875 L 7 -3.796875 Z M 11.21875 -3.796875 "/></g></g></g><g fill="#000000" fill-opacity="1"><g transform="translate(161.187307, 267.651251)"><g><path d="M 7 -1.234375 L 7 0 L 1.0625 0 L 1.0625 -7.90625 L 6.828125 -7.90625 L 6.828125 -6.671875 L 2.53125 -6.671875 L 2.53125 -4.625 L 6.34375 -4.625 L 6.34375 -3.40625 L 2.53125 -3.40625 L 2.53125 -1.234375 Z M 7 -1.234375 "/></g></g></g><g fill="#000000" fill-opacity="1"><g transform="translate(170.41855, 267.651251)"><g><path d="M 3.515625 0.109375 C 2.898438 0.109375 2.304688 0.0234375 1.734375 -0.140625 C 1.171875 -0.316406 0.722656 -0.550781 0.390625 -0.84375 L 0.90625 -1.984375 C 1.226562 -1.722656 1.625 -1.507812 2.09375 -1.34375 C 2.5625 -1.1875 3.035156 -1.109375 3.515625 -1.109375 C 4.097656 -1.109375 4.535156 -1.203125 4.828125 -1.390625 C 5.117188 -1.578125 5.265625 -1.828125 5.265625 -2.140625 C 5.265625 -2.359375 5.179688 -2.539062 5.015625 -2.6875 C 4.859375 -2.84375 4.65625 -2.957031 4.40625 -3.03125 C 4.15625 -3.113281 3.816406 -3.210938 3.390625 -3.328125 C 2.785156 -3.460938 2.296875 -3.601562 1.921875 -3.75 C 1.546875 -3.894531 1.222656 -4.117188 0.953125 -4.421875 C 0.691406 -4.722656 0.5625 -5.132812 0.5625 -5.65625 C 0.5625 -6.09375 0.679688 -6.488281 0.921875 -6.84375 C 1.160156 -7.207031 1.519531 -7.492188 2 -7.703125 C 2.476562 -7.910156 3.0625 -8.015625 3.75 -8.015625 C 4.226562 -8.015625 4.703125 -7.953125 5.171875 -7.828125 C 5.640625 -7.710938 6.039062 -7.546875 6.375 -7.328125 L 5.921875 -6.171875 C 5.578125 -6.378906 5.210938 -6.535156 4.828125 -6.640625 C 4.453125 -6.742188 4.085938 -6.796875 3.734375 -6.796875 C 3.160156 -6.796875 2.726562 -6.695312 2.4375 -6.5 C 2.15625 -6.3125 2.015625 -6.054688 2.015625 -5.734375 C 2.015625 -5.503906 2.097656 -5.316406 2.265625 -5.171875 C 2.429688 -5.023438 2.632812 -4.910156 2.875 -4.828125 C 3.125 -4.742188 3.460938 -4.648438 3.890625 -4.546875 C 4.484375 -4.410156 4.96875 -4.269531 5.34375 -4.125 C 5.71875 -3.976562 6.035156 -3.753906 6.296875 -3.453125 C 6.566406 -3.148438 6.703125 -2.742188 6.703125 -2.234375 C 6.703125 -1.796875 6.582031 -1.398438 6.34375 -1.046875 C 6.113281 -0.691406 5.753906 -0.410156 5.265625 -0.203125 C 4.785156 0.00390625 4.203125 0.109375 3.515625 0.109375 Z M 3.515625 0.109375 "/></g></g></g><g fill="#000000" fill-opacity="1"><g transform="translate(179.186617, 267.651251)"><g><path d="M 2.671875 -6.671875 L 0.046875 -6.671875 L 0.046875 -7.90625 L 6.75 -7.90625 L 6.75 -6.671875 L 4.140625 -6.671875 L 4.140625 0 L 2.671875 0 Z M 2.671875 -6.671875 "/></g></g></g><g fill="#000000" fill-opacity="1"><g transform="translate(187.649676, 267.651251)"><g><path d="M 6.1875 -1.828125 L 2.234375 -1.828125 L 1.453125 0 L -0.0625 0 L 3.5 -7.90625 L 4.953125 -7.90625 L 8.515625 0 L 6.984375 0 Z M 5.703125 -2.984375 L 4.21875 -6.4375 L 2.734375 -2.984375 Z M 5.703125 -2.984375 "/></g></g></g><g fill="#000000" fill-opacity="1"><g transform="translate(197.773376, 267.651251)"><g><path d="M 2.671875 -6.671875 L 0.046875 -6.671875 L 0.046875 -7.90625 L 6.75 -7.90625 L 6.75 -6.671875 L 4.140625 -6.671875 L 4.140625 0 L 2.671875 0 Z M 2.671875 -6.671875 "/></g></g></g><g fill="#000000" fill-opacity="1"><g transform="translate(206.236436, 267.651251)"><g><path d="M 7 -1.234375 L 7 0 L 1.0625 0 L 1.0625 -7.90625 L 6.828125 -7.90625 L 6.828125 -6.671875 L 2.53125 -6.671875 L 2.53125 -4.625 L 6.34375 -4.625 L 6.34375 -3.40625 L 2.53125 -3.40625 L 2.53125 -1.234375 Z M 7 -1.234375 "/></g></g></g><g clip-path="url(#10328473ca)"><path fill="#de0f3f" d="M 201.132812 122.523438 L 201.113281 97.21875 L 247.363281 123.914062 L 247.363281 149.210938 Z M 272.316406 166.429688 L 273.53125 164.3125 L 249.804688 150.613281 L 249.804688 125.324219 L 262.070312 132.40625 L 263.285156 130.289062 L 249.804688 122.5 L 249.804688 107.289062 L 247.371094 107.289062 L 247.371094 121.089844 L 151.84375 65.964844 L 150.625 68.082031 L 174.355469 81.785156 L 174.355469 192.082031 L 151.234375 178.722656 L 128.113281 192.035156 L 128.113281 108.703125 L 127.773438 108.359375 L 127.117188 107.679688 L 126.261719 108.140625 L 101.949219 122.183594 L 101.339844 122.527344 L 101.339844 222.796875 L 125.996094 222.796875 L 128.113281 221.582031 L 151.234375 208.21875 L 176.472656 222.796875 L 201.128906 222.796875 L 201.128906 125.324219 L 247.371094 152.023438 L 247.371094 220.363281 L 225.464844 220.363281 L 225.464844 155.550781 L 223.03125 155.550781 L 223.03125 220.363281 L 212.882812 220.363281 L 212.882812 222.796875 L 260.753906 222.796875 L 260.753906 220.363281 L 249.804688 220.363281 L 249.804688 153.433594 Z M 272.316406 166.429688 " fill-opacity="1" fill-rule="nonzero"/></g></svg>